<svg viewBox="0 0 32 32" xmlns="http://www.w3.org/2000/svg" fill="none" stroke="#3ecf8e" stroke-width="2" stroke-linecap="round" stroke-linejoin="round">
  <defs>
    <linearGradient id="g" x1="0" y1="0" x2="32" y2="32" gradientUnits="userSpaceOnUse">
      <stop offset="0%" stop-color="#3ecf8e"/>
      <stop offset="100%" stop-color="#2dba72"/>
    </linearGradient>
  </defs>
  <rect width="32" height="32" rx="6" fill="#0a0a0a"/>
  <path d="M5 8 C5 5, 7 4, 9 5 C10 6, 11 8, 11 11" stroke="url(#g)"/>
  <path d="M27 8 C27 5, 25 4, 23 5 C22 6, 21 8, 21 11" stroke="url(#g)"/>
  <path d="M11 11 L11 17 C11 21, 13 25, 16 27 C19 25, 21 21, 21 17 L21 11 Z" fill="url(#g)" stroke="url(#g)" opacity="0.9"/>
  <circle cx="16" cy="22" r="1.6" fill="#0a0a0a" stroke="#0a0a0a"/>
  <path d="M14 14 L16 12 L18 14 M16 12 L16 18" stroke="#0a0a0a" stroke-width="1.6"/>
</svg>
